<svg version="1.1" viewBox="0 0 48 48" xmlns="http://www.w3.org/2000/svg">
  <style>
    .tc { fill: #080808 }
    @media (prefers-color-scheme: dark) { .tc { fill: #f1f1f4 } }
  </style>
  <g stroke-linejoin="round" stroke-width=".189" class="tc">
    <path d="m6.75 2.53c4.47 3.88 6.66 6.58 6.66 6.58l-3.79 3.63s0-2.11-3.04-4.55c-3.04-2.45-3.2-2.45-3.2-2.45z"/>
    <path d="m1.35 21.2 11 0.0843-0.169 17.7s4.38 4.22 7.5 4.22c3.12 0 27.9 0.0843 27.9 0.0843l-0.0843 3.96h-25.1s-7.08-0.759-10-2.78c-2.95-2.02-2.7-2.19-2.7-2.19l-6.49 4.72-2.53-3.88s3.79-1.35 5.65-2.78l1.86-1.43v-13.2l-6.58-0.169z"/>
    <path d="m21.9 1.35-7 12.8 3.2 1.86 3.79-5.14 6.75-0.0843 0.0843 6.49h-14.8v3.79l33.3 0.169-0.0843-3.88h-14.3l-0.169-6.49h10.5v-3.88l-10.6 0.169v-6.49h-3.96l-0.0843 6.24-4.72-0.0843 1.86-4.3z"/>
    <path d="m19.2 39 22.5-0.0843 0.0843-14.3-22.5 0.0843-0.169 10.7 4.3-0.422-0.0843-6.32 14.1 0.0843 0.0843 6.49-18.4-0.169z"/>
  </g>
</svg>
